<svg width="102" height="101" viewBox="0 0 102 101" fill="none" xmlns="http://www.w3.org/2000/svg">
<g filter="url(#filter0_d_36)">
<rect x="9" y="2" width="84" height="83" rx="15" fill="#FFB167"/>
</g>
<path d="M57.8457 52.3622C52.99 56.3746 50.1876 60.7632 50.035 61C49.813 60.7492 45.7065 55.9706 42.5018 52.3622C41.5168 51.2477 39.6301 49.4226 37.7294 47.1796H38.7838C39.1584 47.1796 39.5052 46.9567 39.6578 46.6084L42.7654 39.4195L45.8453 51.3313C45.9563 51.7353 46.317 52.0279 46.7332 52.0557C46.747 52.0557 46.7609 52.0557 46.7748 52.0557C47.1771 52.0557 47.5517 51.791 47.6766 51.4149L50.8813 42.0526L52.2131 44.9505C52.3657 45.2988 52.7125 45.5077 53.0871 45.5077H64.5881C62.299 48.4195 59.6492 50.8715 57.8457 52.3622ZM65.9476 43.5573H53.6837L51.6166 39.0294C51.4501 38.6672 51.0894 38.4443 50.7009 38.4721C50.3125 38.5 49.9656 38.7508 49.8408 39.1269L46.8996 47.7368L43.9169 36.2291C43.8198 35.839 43.473 35.5464 43.0706 35.5186C42.6544 35.4768 42.2799 35.7136 42.1134 36.0898L38.1456 45.257H36.1756C32.4853 40.3669 29.6829 34.1115 34.7605 28.8452C37.4103 26.0867 39.9353 25.1533 42.1411 25.1533C46.8719 25.1533 49.9934 29.2353 50.1599 29.4443C50.3818 29.2353 54.5716 25 59.6492 25C61.9799 25 64.4355 25.9334 66.6829 28.6502C70.6229 33.4149 68.9998 38.918 65.9476 43.5573Z" fill="#F9F9F9"/>
<defs>
<filter id="filter0_d_36" x="0" y="0" width="102" height="101" filterUnits="userSpaceOnUse" color-interpolation-filters="sRGB">
<feFlood flood-opacity="0" result="BackgroundImageFix"/>
<feColorMatrix in="SourceAlpha" type="matrix" values="0 0 0 0 0 0 0 0 0 0 0 0 0 0 0 0 0 0 127 0" result="hardAlpha"/>
<feOffset dy="7"/>
<feGaussianBlur stdDeviation="4.5"/>
<feColorMatrix type="matrix" values="0 0 0 0 0 0 0 0 0 0 0 0 0 0 0 0 0 0 0.03 0"/>
<feBlend mode="normal" in2="BackgroundImageFix" result="effect1_dropShadow_3:6"/>
<feBlend mode="normal" in="SourceGraphic" in2="effect1_dropShadow_3:6" result="shape"/>
</filter>
</defs>
</svg>
