<svg width="43" height="42" viewBox="0 0 43 42" fill="none" xmlns="http://www.w3.org/2000/svg">
<path d="M42.0431 20.6199C42.0431 9.23286 32.7363 0 21.2582 0C9.78008 0 0.473358 9.23286 0.473358 20.6199C0.473358 32.0069 9.77764 41.2398 21.2582 41.2398C32.7388 41.2398 42.0431 32.0069 42.0431 20.6199Z" fill="#5A4980"/>
<path d="M42.043 20.6199C42.043 9.23286 32.7363 0 21.2582 0V41.2398C32.7388 41.2398 42.043 32.0069 42.043 20.6199Z" fill="#534378"/>
<mask id="mask0_1:229" style="mask-type:alpha" maskUnits="userSpaceOnUse" x="0" y="0" width="42" height="42">
<path d="M41.7986 20.6199C41.7986 9.23286 32.4918 0 21.0137 0C9.53557 0 0.228851 9.23286 0.228851 20.6199C0.228851 32.0069 9.53313 41.2398 21.0137 41.2398C32.4943 41.2398 41.7986 32.0069 41.7986 20.6199Z" fill="#5A4980"/>
<path d="M41.7985 20.6199C41.7985 9.23286 32.4918 0 21.0137 0V41.2398C32.4943 41.2398 41.7985 32.0069 41.7985 20.6199Z" fill="#534378"/>
</mask>
<g mask="url(#mask0_1:229)">
<path d="M13.2548 16.9447C13.2548 20.3991 11.3451 20.4889 11.4796 22.7765C11.6312 25.3091 13.6265 25.3139 13.6265 27.0557C13.6265 28.7975 11.7926 30.7479 13.4162 32.6231C20.5662 32.6231 21.2631 32.6231 21.2631 32.6231V11.501L13.2548 16.9447Z" fill="#461811"/>
<path d="M29.2665 16.9447C29.2665 20.3991 31.1762 20.4889 31.0417 22.7765C30.8901 25.3091 28.8948 25.3139 28.8948 27.0557C28.8948 28.7975 30.7287 30.7479 29.1051 32.6231C21.9551 32.6231 21.2582 32.6231 21.2582 32.6231V11.501L29.2665 16.9447Z" fill="#461811"/>
<path d="M30.3962 13.3738C30.3962 8.38868 26.3224 4.34961 21.2998 4.34961C16.2747 4.34961 12.2033 8.39111 12.2033 13.3738C12.2033 18.359 16.2772 22.3981 21.2998 22.3981C26.3248 22.3981 30.3962 18.359 30.3962 13.3738Z" fill="#461811"/>
<path d="M24.3442 32.7007L21.2607 41.2762L18.2579 32.7007V26.0781H24.3442V32.7007Z" fill="#EAC8AD"/>
<path d="M21.2998 7.72641C18.3434 7.72641 13.6705 9.39298 13.6705 17.2043C13.6705 21.714 15.4434 23.839 16.0889 24.6565C16.6831 25.4086 19.7324 27.8393 21.2998 27.8393C21.2998 19.9455 21.2998 7.72641 21.2998 7.72641Z" fill="#F2D7BC"/>
<path d="M12.2009 19.0674C12.0713 17.8205 12.6704 16.7118 13.5385 16.593C14.409 16.4741 15.2184 17.3911 15.3505 18.638C15.4801 19.8849 14.881 20.9935 14.0105 21.1124C13.1424 21.2288 12.3305 20.3143 12.2009 19.0674Z" fill="#F2D7BC"/>
<path d="M21.2753 7.72641C24.2317 7.72641 28.9046 9.39298 28.9046 17.2043C28.9046 21.714 27.1318 23.839 26.4862 24.6565C25.892 25.4086 22.8428 27.8393 21.2753 27.8393C21.2753 19.9455 21.2753 7.72641 21.2753 7.72641Z" fill="#EAC0A7"/>
<path d="M30.3987 19.0674C30.5283 17.8205 29.9292 16.7118 29.0611 16.593C28.1906 16.4741 27.3812 17.3911 27.2516 18.638C27.122 19.8849 27.7211 20.9935 28.5891 21.1124C29.4597 21.2288 30.2691 20.3143 30.3987 19.0674Z" fill="#EAC0A7"/>
<path d="M21.2607 41.2761V33.0282C21.2607 33.0282 18.989 32.4702 18.4902 30.646C18.2505 29.7678 18.2554 29.0643 18.2554 29.0643C18.2554 29.0643 13.2891 30.7285 12.1814 32.446C11.2595 35.1702 11.0052 41.2761 11.0052 41.2761H21.2607V41.2761Z" fill="#EAC8AD"/>
<path d="M21.2607 41.2762V33.0282C21.2607 33.0282 23.5323 32.4703 24.0311 30.646C24.2708 29.7679 24.2659 29.0644 24.2659 29.0644C24.2659 29.0644 29.2322 30.7285 30.3399 32.446C31.2618 35.1703 31.5161 41.2762 31.5161 41.2762H21.2607V41.2762Z" fill="#EAC8AD"/>
<path d="M21.2998 25.0884C22.4515 25.0884 23.3856 24.3873 23.3856 23.5213H19.214C19.214 24.3873 20.1481 25.0884 21.2998 25.0884Z" fill="white"/>
<path d="M21.2607 38.0522C21.2607 38.0522 19.0746 32.6231 18.2554 29.0668C17.4265 29.3846 16.7492 29.5835 16.2308 29.8503C13.7733 34.9835 13.6681 41.2786 13.6681 41.2786H21.2582V38.0522H21.2607Z" fill="#EB1A3A"/>
<path d="M21.295 38.0522C21.295 38.0522 23.481 32.6231 24.3002 29.0668C25.1291 29.3846 25.8065 29.5835 26.3249 29.8503C28.7824 34.9835 28.8875 41.2786 28.8875 41.2786H21.295V38.0522Z" fill="#C5132D"/>
<path d="M20.8694 5.48004C15.4702 5.48004 13.827 10.1741 13.827 12.3355C11.8683 15.0355 14.0031 17.4517 15.5142 18.3008C15.5142 17.7986 15.5142 17.6142 15.5142 16.9714C15.5142 15.2248 17.1892 13.6067 19.703 13.876C21.9551 14.1161 23.3758 12.8547 24.574 10.7054C26.0533 7.83071 24.2072 5.48004 20.8694 5.48004Z" fill="#461811"/>
<path d="M24.3441 9.8248C24.3441 9.8248 25.6059 14.907 29.0611 16.593C29.6773 12.0251 30.0392 12.9857 29.0611 10.5817C28.083 8.17521 24.3441 6.38977 24.3441 6.38977V9.8248Z" fill="#461811"/>
</g>
</svg>
