<svg width="102" height="101" viewBox="0 0 102 101" fill="none" xmlns="http://www.w3.org/2000/svg">
<g filter="url(#filter0_d_33)">
<rect x="9" y="2" width="84" height="83" rx="15" fill="#4B7FFB"/>
</g>
<g clip-path="url(#clip0_33)">
<path d="M66.8351 30.6164C64.8064 28.1966 62.3555 27.0133 59.3737 27C59.3601 27 59.3601 27 59.3464 27C56.3782 27 53.7368 28.2897 53.0015 28.6886C52.7973 28.7949 52.6611 28.8747 52.5658 28.9279L52.4705 28.9944C52.3207 29.0874 52.1437 29.1007 51.9803 29.021L51.6944 28.8747V28.888C51.5991 28.8481 51.4766 28.7949 51.3268 28.7284C50.7413 28.4891 50.115 28.2631 49.4887 28.0504C48.0862 27.5983 45.9349 27.0665 43.6339 27.0665H43.6203C40.053 27.0798 37.3162 28.2498 35.2057 30.6297C33.7352 32.3316 33 34.1265 33 36.1342C33 38.2216 33.8033 40.4952 35.4781 43.0745C36.1725 44.1515 36.8941 45.1088 37.534 45.9464C38.0923 46.691 38.5825 47.3292 38.882 47.8344C39.5219 48.9778 39.8487 50.5866 40.1891 52.2752C40.2572 52.6076 40.3253 52.94 40.3933 53.2724C40.7882 55.2534 41.3192 57.4472 42.2451 58.697C42.9259 59.6011 43.6067 59.9734 44.6278 59.9867C45.2542 59.9601 45.6218 59.7607 46.0575 59.2023C46.5204 58.5907 46.8064 57.6068 46.9697 56.9021C47.2284 55.8251 47.3782 54.5355 47.5416 53.2857C47.6641 52.3284 47.7867 51.3445 47.9501 50.4404C48.1952 49.2039 48.4811 47.9275 49.2708 47.05C49.6929 46.5846 50.3056 46.3054 50.9455 46.3054C51.8714 46.3054 52.6884 46.8372 53.1921 47.7546C53.7095 48.6587 53.9818 49.7756 54.2133 50.8525C54.3495 51.5439 54.472 52.2619 54.6082 52.9799C54.9213 54.8014 55.2209 56.5032 55.7519 57.7264C56.2284 58.7768 56.7731 59.4815 57.8351 59.4948C58.9788 59.4549 59.469 59.056 59.9592 58.338C60.3812 57.6865 60.6944 56.6628 60.9123 55.2002C61.0212 54.5886 61.0893 53.9371 61.171 53.2724C61.416 51.2514 61.6747 49.1773 62.6551 47.6217C63.1044 46.9569 63.7035 46.199 64.3434 45.4013C66.4402 42.782 69.0545 39.5246 69.0136 36.0145C69 34.1531 68.292 32.3715 66.8351 30.6164Z" fill="#F9F9F9"/>
</g>
<defs>
<filter id="filter0_d_33" x="0" y="0" width="102" height="101" filterUnits="userSpaceOnUse" color-interpolation-filters="sRGB">
<feFlood flood-opacity="0" result="BackgroundImageFix"/>
<feColorMatrix in="SourceAlpha" type="matrix" values="0 0 0 0 0 0 0 0 0 0 0 0 0 0 0 0 0 0 127 0" result="hardAlpha"/>
<feOffset dy="7"/>
<feGaussianBlur stdDeviation="4.5"/>
<feColorMatrix type="matrix" values="0 0 0 0 0 0 0 0 0 0 0 0 0 0 0 0 0 0 0.03 0"/>
<feBlend mode="normal" in2="BackgroundImageFix" result="effect1_dropShadow_3:3"/>
<feBlend mode="normal" in="SourceGraphic" in2="effect1_dropShadow_3:3" result="shape"/>
</filter>
<clipPath id="clip0_3:3">
<rect width="36" height="33" fill="white" transform="translate(33 27)"/>
</clipPath>
</defs>
</svg>
